<svg width="111" height="133" viewBox="0 0 111 133" fill="none" xmlns="http://www.w3.org/2000/svg">
<g clip-path="url(#clip0)">
<path fill-rule="evenodd" clip-rule="evenodd" d="M76.5872 71.8859C80.3713 67.9033 82.7644 55.7932 98.9822 55.8819C80.5284 55.1964 80.7496 67.4374 74.1204 71.4381C73.2546 71.9604 71.961 71.7738 68.8231 71.142C71.8067 68.3894 72.4113 60.0457 70.834 51.6234C68.6847 40.1477 87.1311 26.8936 96.2593 27.5576C83.8661 26.7466 69.8572 41.3334 69.5994 46.8789C68.1667 42.4599 65.2777 36.2458 62.5193 33.653C71.2291 46.1551 72.7204 70.3095 65.6718 70.3565C63.9604 70.3632 61.8128 68.8036 60.5653 67.8886C58.8934 67.624 57.2828 67.1856 55.9143 66.0759C55.9751 65.8785 55.6891 65.0191 55.903 64.3746C57.0548 63.7241 58.2038 62.3652 58.139 60.9634C58.5528 60.7352 58.787 60.7895 58.9362 60.4653C59.2036 59.7939 58.7363 57.8879 58.1295 57.5979C57.9155 57.4958 57.8108 57.616 57.3447 57.7395C56.1856 55.8899 51.9827 56.0484 51.878 59.0346C51.7879 59.2454 50.7358 60.049 50.5889 60.229C50.4233 60.4304 50.595 60.7425 50.832 60.9936C50.8788 61.195 50.5084 61.3018 50.4847 61.5569C50.4729 61.6999 50.5866 61.857 50.6845 61.9597C50.4875 62.0128 50.3597 62.1652 50.3468 62.2444C50.3338 62.3337 50.5314 62.6009 50.5376 62.7634C50.5416 62.8768 50.2471 62.9883 50.2421 63.3777C50.2314 64.2853 51.8223 64.7284 52.3328 64.6633C52.6965 64.9634 52.853 66.2994 52.723 66.7989C51.9163 67.9228 51.9135 68.1108 50.9694 67.7791C48.4198 66.4062 45.4998 66.3693 42.6722 64.2598C38.3702 61.2655 34.0828 52.2901 36.6391 39.3911C38.8183 28.3975 50.3186 16.3445 61.0421 14.4163C51.3477 14.7822 38.2537 27.4851 35.7097 38.8769C33.0093 30.513 21.3648 19.559 15.7765 18.127C22.0707 21.322 32.6929 32.0571 34.5135 39.6456C34.6103 46.3579 33.2136 57.6804 39.1808 64.2988C38.0853 63.994 36.9364 63.9429 35.7525 64.2988C34.0704 64.8003 24.7779 63.1574 20.2975 60.9419C24.7627 64.192 32.6771 64.7761 32.3017 64.9446C26.5771 67.5119 19.1963 73.1541 7.92004 74.1188C20.2429 75.1474 33.101 63.7509 41.0385 66.2424C42.6998 68.1269 48.14 69.9805 48.837 71.8651L48.8009 71.9248L48.7745 71.9671C47.4797 74.0671 47.4003 74.3511 49.0869 76.8432C50.4487 78.997 50.8095 82.9688 52.2445 85.5347C50.93 86.8399 45.7391 96.2658 47.2872 97.5159L49.3459 96.9862C49.7236 96.6794 50.1672 96.2759 50.7009 95.7663C51.359 95.3716 51.3094 96.4686 52.1803 96.2551L52.2163 96.2464C52.3943 96.1924 52.5662 96.1128 52.728 96.0094C53.4081 95.5958 53.5162 94.4451 54.3223 93.8489C54.6223 93.628 54.6088 94.6546 54.6696 95.6146C56.077 96.245 57.4674 92.9963 59.9179 93.7019C61.2842 94.0926 61.3287 90.4223 62.5131 90.004C62.6567 89.7623 65.5339 91.1332 68.7229 89.6582C71.9317 89.2366 75.0279 87.2413 77.3545 86.6304C77.7379 86.3968 79.9238 86.388 80.1236 86.143C80.2554 85.9825 81.6498 84.7512 83.3566 84.1289C85.4857 83.3501 86.7427 81.9718 85.909 81.1749C83.8565 79.2085 79.7684 83.097 79.0237 83.9946C77.4288 84.5149 75.4208 84.0812 72.9219 84.5378C70.4393 84.9902 68.916 85.6361 66.4942 85.6871C66.5545 84.0947 68.5704 84.2242 68.469 81.5347C68.6452 80.6834 69.4823 79.7536 68.8952 79.4575C66.8207 78.4089 60.2591 81.5032 58.4661 81.5764C58.3703 81.5 58.278 81.4176 58.1897 81.3293C56.9079 79.9792 56.9 76.7969 57.6707 74.3719C58.1143 73.2111 58.7104 72.2236 59.2874 71.6737C60.835 71.5509 65.2721 73.7113 67.6691 73.9825C80.3516 75.0507 93.8161 68.3216 102.54 80.386C95.4115 68.8211 86.0137 71.7738 76.5872 71.8859Z" fill="#DC8080"/>
<path fill-rule="evenodd" clip-rule="evenodd" d="M28.5413 54.085C27.8533 57.75 28.6764 60.9269 33.1467 63.3646C32.5584 59.4069 31.1432 56.2051 28.5413 54.085Z" fill="#ECBDBC"/>
<path fill-rule="evenodd" clip-rule="evenodd" d="M0 60.9403C3.39229 63.6009 7.00864 63.3518 10.7809 61.0746C5.99422 55.5104 2.75504 56.7416 0 60.9403Z" fill="#ECBDBC"/>
<path fill-rule="evenodd" clip-rule="evenodd" d="M35.8111 50.0772C43.743 47.4092 45.3519 43.667 44.3509 39.2635C39.6954 41.6523 36.6476 44.6667 35.8111 50.0772Z" fill="#ECBDBC"/>
<path fill-rule="evenodd" clip-rule="evenodd" d="M43.0578 23.7407C44.2552 19.166 44.2299 14.8498 42.4499 10.9028C40.0354 14.3328 39.4454 18.2341 43.0578 23.7407Z" fill="#ECBDBC"/>
<path fill-rule="evenodd" clip-rule="evenodd" d="M49.4512 21.4359C52.1893 22.7236 55.0063 22.3483 57.8785 20.8163C53.9553 17.9737 51.4654 18.88 49.4512 21.4359Z" fill="#ECBDBC"/>
<path fill-rule="evenodd" clip-rule="evenodd" d="M11.7351 23.0138C14.2627 24.6116 17.0172 24.613 19.931 23.5045C16.3997 20.2511 13.9126 20.8063 11.7351 23.0138Z" fill="#ECBDBC"/>
<path fill-rule="evenodd" clip-rule="evenodd" d="M17.789 28.3201C21.0648 30.39 24.6355 30.3926 28.4117 28.9553C23.8322 24.7397 20.6082 25.4581 17.789 28.3201Z" fill="#ECBDBC"/>
<path fill-rule="evenodd" clip-rule="evenodd" d="M100.123 75.0978C103.281 77.414 106.844 77.6913 110.69 76.5453C106.349 71.9881 103.094 72.458 100.123 75.0978Z" fill="#ECBDBC"/>
<path fill-rule="evenodd" clip-rule="evenodd" d="M67.5915 38.8666C69.4599 35.7367 70.3443 32.4396 69.8134 28.9022C67.2554 30.7968 65.9899 33.5957 67.5915 38.8666Z" fill="#ECBDBC"/>
<path fill-rule="evenodd" clip-rule="evenodd" d="M78.1715 20.1536C80.0416 17.0243 80.926 13.7272 80.3934 10.1891C77.8371 12.0844 76.5704 14.8827 78.1715 20.1536Z" fill="#ECBDBC"/>
<path fill-rule="evenodd" clip-rule="evenodd" d="M81.8119 47.7091C84.6694 50.5288 88.1664 51.3895 92.1081 50.8927C88.3403 45.6601 85.0606 45.5855 81.8119 47.7091Z" fill="#ECBDBC"/>
<path fill-rule="evenodd" clip-rule="evenodd" d="M13.4863 83.6456C18.3884 80.8548 18.8821 77.8813 17.5215 74.6675C14.7726 76.9246 13.586 80.0001 13.4863 83.6456Z" fill="#ECBDBC"/>
<path fill-rule="evenodd" clip-rule="evenodd" d="M0.745911 84.7838C7.48997 83.4411 8.95305 80.048 8.24431 75.5975C4.26149 77.188 1.92922 80.4153 0.745911 84.7838Z" fill="#ECBDBC"/>
<path fill-rule="evenodd" clip-rule="evenodd" d="M59.7474 14.54C62.4845 15.8276 65.302 15.453 68.1747 13.921C64.2515 11.0777 61.7611 11.9847 59.7474 14.54Z" fill="#ECBDBC"/>
<path fill-rule="evenodd" clip-rule="evenodd" d="M97.4308 55.1628C99.6477 55.279 101.227 53.2481 102.791 50.958C100.59 50.4995 98.7284 51.3018 97.4308 55.1628Z" fill="#ECBDBC"/>
<path fill-rule="evenodd" clip-rule="evenodd" d="M82.7756 62.7135C85.2976 63.6118 87.7824 63.023 90.2441 61.3977C86.5687 59.2211 84.4081 60.2543 82.7756 62.7135Z" fill="#ECBDBC"/>
<path fill-rule="evenodd" clip-rule="evenodd" d="M13.4295 46.289C13.4858 41.4974 12.4275 37.3692 9.7777 34.1917C8.28365 38.3004 8.65069 42.2406 13.4295 46.289Z" fill="#ECBDBC"/>
<path fill-rule="evenodd" clip-rule="evenodd" d="M11.9395 58.4703C11.9958 53.6794 10.9375 49.5512 8.28771 46.3736C6.79366 50.4824 7.16126 54.4226 11.9395 58.4703Z" fill="#ECBDBC"/>
<path fill-rule="evenodd" clip-rule="evenodd" d="M29.3253 25.0483C33.2552 22.5266 29.7025 16.06 27.5802 12.3594C25.4855 16.0755 25.2451 20.0298 29.3253 25.0483Z" fill="#ECBDBC"/>
<path fill-rule="evenodd" clip-rule="evenodd" d="M49.708 16.1638C56.801 10.717 55.8164 5.83148 55.2878 0C50.9464 2.73984 47.6037 7.36622 49.708 16.1638Z" fill="#ECBDBC"/>
<path fill-rule="evenodd" clip-rule="evenodd" d="M75.8526 69.2263C76.3593 66.7999 75.8763 64.4595 74.702 62.1836C73.383 65.7539 74.1514 67.7667 75.8526 69.2263Z" fill="#ECBDBC"/>
<path fill-rule="evenodd" clip-rule="evenodd" d="M86.6971 68.2497C90.6608 68.2933 94.0717 67.0325 96.6888 63.9013C93.2841 62.1611 90.0253 62.6102 86.6971 68.2497Z" fill="#ECBDBC"/>
<path fill-rule="evenodd" clip-rule="evenodd" d="M96.9579 75.3348C94.6346 78.0357 97.2067 84.2089 99.5475 87.6389C101.352 83.7806 101.315 79.8699 96.9579 75.3348Z" fill="#ECBDBC"/>
<path fill-rule="evenodd" clip-rule="evenodd" d="M61.5449 51.5059C62.3465 59.7361 66.4881 62.2222 70.9195 62.7177C69.6631 57.618 69.0652 53.1238 61.5449 51.5059Z" fill="#ECBDBC"/>
<path fill-rule="evenodd" clip-rule="evenodd" d="M73.0429 41.5004C76.7859 44.3718 81.3317 45.4615 86.2158 39.5729C79.461 35.3138 76.6671 38.4128 73.0429 41.5004Z" fill="#ECBDBC"/>
<path fill-rule="evenodd" clip-rule="evenodd" d="M93.416 24.1343C97.0188 22.0121 99.6207 19.0124 100.791 14.7526C97.0408 15.0346 94.2654 17.2165 93.416 24.1343Z" fill="#ECBDBC"/>
<path fill-rule="evenodd" clip-rule="evenodd" d="M12.8227 65.431C14.2301 68.577 14.4907 71.38 19.9158 71.1014C19.1823 67.3632 16.1373 65.8862 12.8227 65.431Z" fill="#ECBDBC"/>
<path fill-rule="evenodd" clip-rule="evenodd" d="M24.4159 76.6281C26.9739 75.5043 31.1414 73.1109 29.6 67.4647C26.7848 69.8527 24.9192 72.8222 24.4159 76.6281Z" fill="#ECBDBC"/>
<path fill-rule="evenodd" clip-rule="evenodd" d="M90.1272 56.2518C92.1966 56.3605 93.6737 54.4646 95.1306 52.3262C93.0765 51.8966 91.3392 52.6465 90.1272 56.2518Z" fill="#ECBDBC"/>
<path fill-rule="evenodd" clip-rule="evenodd" d="M17.7197 39.2939C21.3682 40.0807 24.7695 38.787 28.0019 36.0485C22.5678 33.6913 19.6788 35.5436 17.7197 39.2939Z" fill="#ECBDBC"/>
<path fill-rule="evenodd" clip-rule="evenodd" d="M34.2337 77.0468C36.7912 75.9236 40.9592 73.5289 39.4173 67.8827C36.6026 70.2707 34.737 73.2402 34.2337 77.0468Z" fill="#ECBDBC"/>
<path fill-rule="evenodd" clip-rule="evenodd" d="M21.6017 61.2402C21.658 56.4494 20.6003 52.3198 17.9499 49.1423C16.4564 53.251 16.8235 57.1912 21.6017 61.2402Z" fill="#ECBDBC"/>
<path fill-rule="evenodd" clip-rule="evenodd" d="M28.4848 42.6511C27.8014 47.0552 28.9003 50.7967 34.3186 53.4641C33.4714 48.7813 31.666 45.0391 28.4848 42.6511Z" fill="#ECBDBC"/>
<path fill-rule="evenodd" clip-rule="evenodd" d="M43.1411 26.8218C47.805 32.9627 52.3863 32.1128 56.2318 29.4401C52.7252 26.1658 50.0456 22.9231 43.1411 26.8218Z" fill="#ECBDBC"/>
<path fill-rule="evenodd" clip-rule="evenodd" d="M19.3242 12.1378C18.5671 15.4275 19.1976 18.3473 23.1624 20.7877C24.8016 17.7753 21.6064 14.1935 19.3242 12.1378Z" fill="#ECBDBC"/>
<path fill-rule="evenodd" clip-rule="evenodd" d="M54.9354 35.0648C57.2576 38.5116 60.5356 40.1987 64.4807 40.6606C61.6761 34.6291 58.4758 33.7697 54.9354 35.0648Z" fill="#ECBDBC"/>
<path fill-rule="evenodd" clip-rule="evenodd" d="M85.5729 30.305C89.4707 27.7417 92.4329 23.4886 90.4085 15.5631C84.058 20.6306 85.0167 25.0348 85.5729 30.305Z" fill="#ECBDBC"/>
<path fill-rule="evenodd" clip-rule="evenodd" d="M89.8523 31.2573C95.7801 37.0082 99.0283 34.6201 103.089 32.4369C99.8885 28.7491 95.609 26.6208 89.8523 31.2573Z" fill="#ECBDBC"/>
<path fill-rule="evenodd" clip-rule="evenodd" d="M73.3182 46.8708C75.6398 50.3183 78.9195 52.0054 82.8646 52.4674C80.0589 46.4364 76.8597 45.5744 73.3182 46.8708Z" fill="#ECBDBC"/>
<path fill-rule="evenodd" clip-rule="evenodd" d="M89.0649 40.3828C92.4059 42.2989 95.9739 42.1351 99.7 40.5231C94.9882 36.5225 91.7912 37.3912 89.0649 40.3828Z" fill="#ECBDBC"/>
<path fill-rule="evenodd" clip-rule="evenodd" d="M76.16 35.148C78.5486 32.9748 80.1732 29.7851 78.1635 24.7331C74.3439 28.8687 75.3505 31.6951 76.16 35.148Z" fill="#ECBDBC"/>
<path fill-rule="evenodd" clip-rule="evenodd" d="M2.28448 69.1044C5.71844 70.9352 6.70246 74.9641 12.3713 73.6449C9.47664 66.4572 6.07985 66.2887 2.28448 69.1044Z" fill="#ECBDBC"/>
<path fill-rule="evenodd" clip-rule="evenodd" d="M5.34063 95.382C7.9904 92.2031 9.04648 88.0749 8.99244 83.284C4.21418 87.3317 3.84657 91.2732 5.34063 95.382Z" fill="#ECBDBC"/>
<path fill-rule="evenodd" clip-rule="evenodd" d="M84.1718 72.5025C84.2545 76.3649 88.1501 77.006 90.3011 78.7462C89.9954 75.4182 88.5323 73.0215 84.1718 72.5025Z" fill="#ECBDBC"/>
<path fill-rule="evenodd" clip-rule="evenodd" d="M93.904 56.973C94.8723 59.1576 96.9884 59.7168 99.2739 60.1371C98.5449 57.8041 97.1246 56.3976 93.904 56.973Z" fill="#ECBDBC"/>
<path fill-rule="evenodd" clip-rule="evenodd" d="M79.4695 63.4555C81.3762 60.9876 82.443 58.247 82.3068 55.1124C79.9176 56.4216 78.5643 58.6814 79.4695 63.4555Z" fill="#ECBDBC"/>
<path fill-rule="evenodd" clip-rule="evenodd" d="M26.9548 89.7674C29.9761 86.142 31.1803 81.4384 31.1206 75.9755C25.6702 80.5912 25.252 85.0833 26.9548 89.7674Z" fill="#ECBDBC"/>
</g>
<path d="M13.4127 109.964C13.4954 109.964 13.5367 110.062 13.5367 110.259C13.5367 110.457 13.3439 110.785 12.9582 111.245L12.5449 111.984C11.8011 113.331 11.2501 114.12 10.892 114.35C10.5614 114.58 10.2859 114.695 10.0655 114.695C9.87262 114.695 9.5558 114.629 9.11501 114.498C8.70176 114.399 8.48137 114.284 8.45382 114.153C8.45382 114.021 8.45382 113.89 8.45382 113.759C8.45382 112.149 9.67977 108.518 12.1317 102.867C11.4705 102.965 10.9608 103.015 10.6027 103.015C10.2721 103.015 9.98282 102.9 9.73487 102.67C9.51448 102.407 9.40428 102.078 9.40428 101.684C9.40428 101.29 9.69355 100.928 10.2721 100.6C10.8506 100.271 11.2914 100.107 11.5945 100.107C11.9251 100.107 12.2006 100.271 12.421 100.6C12.6414 100.896 12.7791 101.043 12.8342 101.043H12.9582C13.5367 99.7949 14.0602 98.645 14.5285 97.5936C14.9968 96.5422 15.231 95.8687 15.231 95.573C15.231 95.2444 15.1897 94.998 15.107 94.8337C15.2723 93.8809 15.9473 92.6652 17.1319 91.1867C18.3441 89.7082 19.4461 88.969 20.4379 88.969C20.8787 88.969 21.4159 89.1825 22.0495 89.6097C22.6832 90.0039 22.9587 90.5296 22.876 91.1867C22.6832 91.0224 22.5041 90.9403 22.3388 90.9403C20.4654 90.9403 17.8896 94.2916 14.6112 100.994C15.5203 100.896 16.4707 100.748 17.4625 100.551C20.7685 100.058 22.6419 99.8113 23.0826 99.8113C23.5234 99.8113 23.7989 99.8278 23.9091 99.8606C24.0469 99.8606 24.1571 99.8935 24.2397 99.9592C24.3499 100.025 24.4188 100.091 24.4464 100.156C24.4739 100.353 24.1571 100.583 23.4959 100.846C21.898 101.471 18.6609 102.095 13.7847 102.719C11.4705 107.713 10.3134 110.785 10.3134 111.935C10.3134 112.494 10.5063 112.707 10.892 112.576C11.3052 112.411 11.6633 112.099 11.9664 111.639C12.6827 110.522 13.1648 109.964 13.4127 109.964ZM29.5706 86.5048C30.3695 85.4534 31.1271 84.9277 31.8434 84.9277C32.174 84.9277 32.4357 85.0263 32.6286 85.2234C32.8214 85.4206 32.9179 85.6177 32.9179 85.8148C32.9179 86.012 32.8352 86.2091 32.6699 86.4062C32.5046 86.6034 32.1878 86.9155 31.7194 87.3426C31.2511 87.7369 30.8792 88.0983 30.6037 88.4269C29.2813 89.9711 28.6201 91.3017 28.6201 92.4188C28.6201 92.9116 28.7028 93.3223 28.8681 93.6509C29.0609 93.9795 29.0471 94.193 28.8267 94.2916C28.6063 94.3573 28.3997 94.2423 28.2069 93.9466C27.9589 93.7495 27.835 93.0924 27.835 91.9753C27.835 90.4968 28.0554 89.2647 28.4961 88.279C28.5512 88.1804 28.6339 88.0162 28.7441 87.7862C28.8818 87.5233 28.992 87.3426 29.0747 87.244C28.8818 87.244 28.3584 87.244 27.5044 87.244C26.6779 87.244 25.0111 87.1126 22.5041 86.8498C20.0246 86.5869 18.1513 86.4555 16.884 86.4555C15.6167 86.4555 14.6387 86.5541 13.95 86.7512C11.3328 87.1783 9.07368 88.049 7.17276 89.3632C5.29939 90.6446 4.18363 92.271 3.82549 94.2423C3.77039 94.4394 3.74284 94.6859 3.74284 94.9816C3.74284 95.2444 3.81171 95.573 3.94946 95.9672C4.11476 96.3615 4.3076 96.6736 4.528 96.9036C4.7484 97.1336 5.07899 97.4129 5.51979 97.7414C5.98813 98.07 6.29117 98.3164 6.42892 98.4807C6.59422 98.6121 6.62177 98.7271 6.51157 98.8257C6.42892 98.9242 6.3325 98.9735 6.2223 98.9735C6.13965 98.9735 6.04323 98.9571 5.93303 98.9242C4.99634 98.5957 4.19741 97.9878 3.53622 97.1007C2.90257 96.1808 2.58575 95.4251 2.58575 94.8337C2.58575 94.2094 2.65463 93.6838 2.79238 93.2566C2.79238 92.8952 2.80615 92.6324 2.8337 92.4681C3.24694 90.1353 4.50045 88.3283 6.59422 87.0469C9.10123 85.5027 12.1592 84.7306 15.7682 84.7306C17.7518 84.7306 20.1899 85.0099 23.0826 85.5684C25.9754 86.127 28.138 86.4391 29.5706 86.5048Z" fill="#DC8080"/>
<path d="M34.3342 107.401C34.8301 106.185 35.078 105.249 35.078 104.592C35.078 103.935 35.0091 103.425 34.8714 103.064C34.7612 102.67 34.8163 102.341 35.0367 102.078C35.2846 101.816 35.5877 101.717 35.9458 101.783C36.4968 101.947 36.7723 102.686 36.7723 104C36.7723 105.315 36.1249 107.04 34.8301 109.175C34.8576 110.062 35.2433 110.506 35.9872 110.506C36.731 110.506 37.8605 109.553 39.3758 107.647C40.092 106.662 40.5328 106.021 40.6981 105.725C40.891 105.43 41.0563 105.331 41.194 105.43C41.3318 105.495 41.4007 105.561 41.4007 105.627C41.4007 105.955 40.9048 106.81 39.913 108.19C38.3426 110.489 36.9514 111.639 35.7392 111.639C34.9403 111.639 34.3755 111.229 34.0449 110.407C33.4939 111.097 32.9567 111.738 32.4333 112.329C31.3588 113.414 30.1604 113.956 28.838 113.956C28.0942 113.956 27.4743 113.742 26.9784 113.315C26.0142 112.625 25.5321 111.393 25.5321 109.619C25.5321 107.68 26.0831 105.709 27.1851 103.705C27.8187 102.522 28.5625 101.487 29.4166 100.6C30.7665 99.1871 32.0476 98.4807 33.2598 98.4807C33.5628 98.4807 33.8521 98.53 34.1276 98.6285C34.954 98.9571 35.3673 99.5813 35.3673 100.501C35.3673 101.257 35.202 101.635 34.8714 101.635C34.7337 101.569 34.6648 101.323 34.6648 100.896C34.6648 100.304 34.3893 100.008 33.8383 100.008C32.8741 100.008 31.6343 101.06 30.1191 103.163C28.6039 105.265 27.6947 107.385 27.3917 109.52C27.3366 109.882 27.309 110.292 27.309 110.752C27.309 111.179 27.433 111.689 27.681 112.28C27.9289 112.839 28.3835 113.118 29.0447 113.118C29.7334 113.118 30.4772 112.756 31.2762 112.034C32.0751 111.311 32.7914 110.391 33.425 109.274L33.3011 108.978C33.1909 108.452 33.246 108.025 33.4664 107.697C33.6868 107.368 33.976 107.27 34.3342 107.401Z" fill="#DC8080"/>
<path d="M59.6902 105.922C59.277 106.81 58.5332 107.943 57.4587 109.323C56.3843 110.703 55.4201 111.771 54.566 112.526C53.464 113.479 52.2656 113.956 50.9708 113.956C50.7229 113.956 50.3923 113.808 49.979 113.512C49.5933 113.249 49.3316 112.855 49.1939 112.329C49.0561 111.804 48.9872 111.294 48.9872 110.802C48.9872 109.093 49.2627 107.401 49.8137 105.725C49.7311 105.791 49.3454 106.497 48.6566 107.845C47.9954 109.159 47.169 110.407 46.1772 111.59C45.2129 112.773 44.2349 113.364 43.2431 113.364C42.7748 113.364 42.2376 113.216 41.6315 112.921C40.5295 112.329 39.9785 111.245 39.9785 109.668C39.9785 107.73 40.5295 105.742 41.6315 103.705C42.761 101.635 43.4773 100.534 43.7804 100.403C44.1936 100.271 44.5793 100.206 44.9374 100.206C45.3231 100.206 45.7088 100.304 46.0945 100.501C46.4802 100.666 46.4251 100.961 45.9292 101.388C44.0283 103.458 42.6784 105.758 41.8794 108.288C41.5764 109.274 41.4249 110.112 41.4249 110.802C41.4249 111.459 41.5626 111.886 41.8381 112.083C42.1412 112.28 42.4304 112.379 42.7059 112.379C43.3671 112.379 44.2625 111.836 45.392 110.752C46.5491 109.635 48.1332 107.335 50.1443 103.853C50.4198 103.36 50.9019 102.407 51.5907 100.994C52.2794 99.5485 52.6926 98.6942 52.8304 98.4314C53.2712 98.4314 53.7809 98.5628 54.3594 98.8257C54.9655 99.0557 55.1721 99.3678 54.9793 99.762C53.6569 102.39 52.7202 104.329 52.1692 105.577C51.6458 106.826 51.2876 108.288 51.0948 109.964C51.0672 110.259 51.0535 110.637 51.0535 111.097C51.0535 111.557 51.1637 111.935 51.384 112.231C51.7973 112.756 52.3621 112.789 53.0783 112.329C53.8222 111.836 54.8277 110.917 56.095 109.569C57.3623 108.19 58.3816 106.842 59.153 105.528C59.2632 105.364 59.3872 105.331 59.5249 105.43C59.6902 105.495 59.7729 105.577 59.7729 105.676C59.7729 105.742 59.7453 105.824 59.6902 105.922Z" fill="#DC8080"/>
<path d="M68.216 98.4807C69.7037 98.4807 70.4475 99.3349 70.4475 101.043C70.4475 101.931 70.2409 102.653 69.8276 103.212C69.1389 104.428 68.0231 105.495 66.4804 106.415C64.9376 107.302 63.629 107.795 62.5545 107.894C62.1688 107.927 61.9622 107.795 61.9347 107.5C61.9071 107.368 61.9347 107.286 62.0173 107.253C62.1275 107.22 62.2102 107.204 62.2653 107.204C62.8989 107.138 63.7116 106.777 64.7034 106.12C66.5492 104.937 67.8992 103.721 68.7532 102.473C69.1113 101.881 69.2904 101.323 69.2904 100.797C69.2904 100.238 69.07 99.9592 68.6292 99.9592C68.2711 99.9592 67.789 100.14 67.1829 100.501C65.888 101.224 64.5243 102.489 63.0918 104.296C61.6592 106.07 60.7225 107.812 60.2817 109.52C60.144 110.046 60.0751 110.572 60.0751 111.097C60.0751 111.59 60.2542 112.066 60.6123 112.526C60.9704 112.986 61.5214 113.216 62.2653 113.216C63.0918 113.216 64.0422 112.954 65.1167 112.428C68.2298 110.917 70.6266 108.633 72.3071 105.577C72.4724 105.315 72.6239 105.265 72.7617 105.43C72.8719 105.495 72.927 105.577 72.927 105.676C72.927 105.775 72.8856 105.89 72.803 106.021C71.9765 107.664 70.9296 109.126 69.6623 110.407C67.2104 112.904 64.8274 114.153 62.5132 114.153C60.5296 114.153 59.1384 113.446 58.3395 112.034C58.0364 111.475 57.8849 110.802 57.8849 110.013C57.8849 109.224 58.064 108.288 58.4221 107.204C59.1108 105.331 60.5847 103.409 62.8438 101.438C65.1029 99.4663 66.8936 98.4807 68.216 98.4807Z" fill="#DC8080"/>
<path d="M78.4783 99.0228C80.5996 98.7928 81.8807 98.6778 82.3215 98.6778C82.7898 98.6778 83.024 98.76 83.024 98.9242C83.024 99.1214 82.6934 99.3349 82.0322 99.5649C81.3986 99.762 79.8282 100.025 77.3212 100.353C77.1835 100.649 77.0182 100.994 76.8253 101.388C76.4121 102.177 76.1917 102.653 76.1641 102.818C74.5938 106.563 73.7673 108.945 73.6847 109.964C73.6571 110.259 73.6434 110.637 73.6434 111.097C73.6434 111.557 73.7536 111.935 73.974 112.231C74.3596 112.756 74.9106 112.789 75.6269 112.329C76.3432 111.869 77.335 110.949 78.6023 109.569C79.8971 108.19 80.944 106.842 81.7429 105.528C81.8531 105.364 81.9909 105.331 82.1562 105.43C82.5694 105.66 81.8531 106.957 80.0073 109.323C78.2441 111.59 76.7702 112.986 75.5856 113.512C74.8969 113.808 74.3183 113.956 73.85 113.956C72.748 113.956 72.0179 113.331 71.6598 112.083C71.6047 111.853 71.5771 111.574 71.5771 111.245C71.5771 110.095 72.0179 108.354 72.8995 106.021C72.7618 106.382 72.2246 107.204 71.2879 108.485C71.0399 108.814 70.8471 108.814 70.7093 108.485C70.6818 108.42 70.668 108.337 70.668 108.239C70.668 108.107 70.7231 107.96 70.8333 107.795C72.1832 105.791 73.2439 104.099 74.0153 102.719C74.0153 102.686 74.3183 101.996 74.9244 100.649C74.6489 100.715 74.3596 100.748 74.0566 100.748C73.7811 100.748 73.5745 100.649 73.4367 100.452C73.299 100.222 73.2852 99.9592 73.3954 99.6635C73.5883 99.1378 74.3183 98.8421 75.5856 98.7764C75.6132 98.7107 75.6683 98.6778 75.7509 98.6778L77.8171 94.0944C77.9273 93.8316 78.0513 93.5688 78.189 93.3059C78.3268 93.0102 78.4232 92.7967 78.4783 92.6652C78.561 92.501 78.6436 92.3367 78.7263 92.1724C78.8089 92.0081 78.8778 91.8931 78.9329 91.8274C78.988 91.7617 79.0431 91.696 79.0982 91.6303C79.2084 91.4331 79.5252 91.3346 80.0486 91.3346C80.5996 91.3346 80.9715 91.5153 81.1644 91.8767C81.247 92.0081 81.2884 92.2381 81.2884 92.5667C81.2884 92.8624 81.1919 93.2073 80.9991 93.6016C80.8063 93.963 80.5996 94.2259 80.3792 94.3902C80.1588 94.5544 80.0073 94.7351 79.9247 94.9323L77.9411 99.0721L78.4783 99.0228Z" fill="#DC8080"/>
<path d="M87.8005 99.0228C89.9218 98.7928 91.2029 98.6778 91.6437 98.6778C92.112 98.6778 92.3462 98.76 92.3462 98.9242C92.3462 99.1214 92.0156 99.3349 91.3544 99.5649C90.7208 99.762 89.1504 100.025 86.6434 100.353C86.5057 100.649 86.3404 100.994 86.1475 101.388C85.7343 102.177 85.5139 102.653 85.4864 102.818C83.916 106.563 83.0895 108.945 83.0069 109.964C82.9793 110.259 82.9656 110.637 82.9656 111.097C82.9656 111.557 83.0758 111.935 83.2962 112.231C83.6819 112.756 84.2328 112.789 84.9491 112.329C85.6654 111.869 86.6572 110.949 87.9245 109.569C89.2193 108.19 90.2662 106.842 91.0651 105.528C91.1753 105.364 91.3131 105.331 91.4784 105.43C91.8916 105.66 91.1753 106.957 89.3295 109.323C87.5663 111.59 86.0924 112.986 84.9078 113.512C84.2191 113.808 83.6405 113.956 83.1722 113.956C82.0702 113.956 81.3401 113.331 80.982 112.083C80.9269 111.853 80.8993 111.574 80.8993 111.245C80.8993 110.095 81.3401 108.354 82.2217 106.021C82.084 106.382 81.5468 107.204 80.6101 108.485C80.3621 108.814 80.1693 108.814 80.0315 108.485C80.004 108.42 79.9902 108.337 79.9902 108.239C79.9902 108.107 80.0453 107.96 80.1555 107.795C81.5054 105.791 82.5661 104.099 83.3375 102.719C83.3375 102.686 83.6405 101.996 84.2466 100.649C83.9711 100.715 83.6819 100.748 83.3788 100.748C83.1033 100.748 82.8967 100.649 82.7589 100.452C82.6212 100.222 82.6074 99.9592 82.7176 99.6635C82.9105 99.1378 83.6405 98.8421 84.9078 98.7764C84.9354 98.7107 84.9905 98.6778 85.0731 98.6778L87.1393 94.0944C87.2495 93.8316 87.3735 93.5688 87.5112 93.3059C87.649 93.0102 87.7454 92.7967 87.8005 92.6652C87.8832 92.501 87.9658 92.3367 88.0485 92.1724C88.1311 92.0081 88.2 91.8931 88.2551 91.8274C88.3102 91.7617 88.3653 91.696 88.4204 91.6303C88.5306 91.4331 88.8474 91.3346 89.3708 91.3346C89.9218 91.3346 90.2938 91.5153 90.4866 91.8767C90.5692 92.0081 90.6106 92.2381 90.6106 92.5667C90.6106 92.8624 90.5142 93.2073 90.3213 93.6016C90.1285 93.963 89.9218 94.2259 89.7014 94.3902C89.481 94.5544 89.3295 94.7351 89.2469 94.9323L87.2633 99.0721L87.8005 99.0228Z" fill="#DC8080"/>
<path d="M100.057 98.4807C101.544 98.4807 102.288 99.3349 102.288 101.043C102.288 101.931 102.082 102.653 101.668 103.212C100.98 104.428 99.8639 105.495 98.3211 106.415C96.7784 107.302 95.4697 107.795 94.3953 107.894C94.0096 107.927 93.803 107.795 93.7754 107.5C93.7479 107.368 93.7754 107.286 93.8581 107.253C93.9683 107.22 94.0509 107.204 94.106 107.204C94.7397 107.138 95.5524 106.777 96.5442 106.12C98.39 104.937 99.7399 103.721 100.594 102.473C100.952 101.881 101.131 101.323 101.131 100.797C101.131 100.238 100.911 99.9592 100.47 99.9592C100.112 99.9592 99.6297 100.14 99.0236 100.501C97.7288 101.224 96.3651 102.489 94.9325 104.296C93.4999 106.07 92.5633 107.812 92.1225 109.52C91.9847 110.046 91.9158 110.572 91.9158 111.097C91.9158 111.59 92.0949 112.066 92.4531 112.526C92.8112 112.986 93.3622 113.216 94.106 113.216C94.9325 113.216 95.883 112.954 96.9574 112.428C100.071 110.917 102.467 108.633 104.148 105.577C104.313 105.315 104.465 105.265 104.602 105.43C104.713 105.495 104.768 105.577 104.768 105.676C104.768 105.775 104.726 105.89 104.644 106.021C103.817 107.664 102.77 109.126 101.503 110.407C99.0512 112.904 96.6681 114.153 94.354 114.153C92.3704 114.153 90.9792 113.446 90.1802 112.034C89.8772 111.475 89.7256 110.802 89.7256 110.013C89.7256 109.224 89.9047 108.288 90.2629 107.204C90.9516 105.331 92.4255 103.409 94.6846 101.438C96.9436 99.4663 98.7344 98.4807 100.057 98.4807Z" fill="#DC8080"/>
<line x1="8.11737" y1="117.515" x2="99.6214" y2="117.515" stroke="#DC8080"/>
<path d="M18.6358 121.8V131.875H14.3985V121.8H13.4289V131.875H9.17839V121.8H8.20874V132.889H19.6054V121.8H18.6358Z" fill="#DC8080"/>
<path d="M27.6249 132.889H28.7407L25.7919 128.596L28.5414 124.557H27.5187L25.0613 128.216H23.4541V124.557H22.511V132.889H23.4541V129.182H25.0481L27.6249 132.889Z" fill="#DC8080"/>
<path d="M32.865 132.968C34.9106 132.968 36.4115 131.194 36.4115 128.723C36.4115 126.252 34.9106 124.493 32.865 124.493C30.8195 124.493 29.3052 126.252 29.3052 128.723C29.3052 131.194 30.8195 132.968 32.865 132.968ZM32.865 131.97C31.3773 131.97 30.2616 130.671 30.2616 128.723C30.2616 126.774 31.3773 125.475 32.865 125.475C34.3527 125.475 35.4552 126.774 35.4552 128.723C35.4552 130.671 34.3527 131.97 32.865 131.97Z" fill="#DC8080"/>
<path d="M38.9859 124.557L38.8664 127.535C38.7734 129.737 38.6671 131.97 37.5115 131.97C37.4185 131.97 37.299 131.939 37.1794 131.907L37.113 132.873C37.3654 132.952 37.5779 133 37.7905 133C39.2914 133 39.5969 130.529 39.7165 127.614L39.8094 125.555H43.1567V132.889H44.0998V124.557H38.9859Z" fill="#DC8080"/>
<path d="M49.1849 124.493C48.0825 124.493 47.0464 124.905 46.3424 125.618L46.7675 126.458C47.3386 125.856 48.1887 125.475 49.092 125.475C50.3937 125.475 51.0711 126.252 51.0711 127.677V128.184H48.8529C46.8472 128.184 46.1565 129.261 46.1565 130.545C46.1565 131.986 47.1261 132.968 48.7068 132.968C49.8624 132.968 50.6859 132.446 51.111 131.59V132.889H52.0142V127.725C52.0142 125.571 50.9914 124.493 49.1849 124.493ZM48.8529 132.081C47.7371 132.081 47.0863 131.479 47.0863 130.513C47.0863 129.658 47.5246 129.024 48.8794 129.024H51.0711V130.386C50.6992 131.479 49.9155 132.081 48.8529 132.081Z" fill="#DC8080"/>
<path d="M61.3882 124.763C60.0732 124.763 59.0239 125.539 58.466 126.822C58.559 124.161 59.4622 122.973 61.4414 122.45L64.3902 121.642L64.2308 120.612L61.096 121.468C58.7184 122.133 57.5628 123.876 57.5628 127.503C57.5628 130.893 58.8645 132.984 61.2156 132.984C63.301 132.984 64.7355 131.289 64.7355 128.834C64.7355 126.426 63.3541 124.763 61.3882 124.763ZM61.2421 132.05C59.7545 132.05 58.6918 130.735 58.6918 128.865C58.6918 127.012 59.7412 125.776 61.2421 125.776C62.7431 125.776 63.7792 127.012 63.7792 128.865C63.7792 130.735 62.7298 132.05 61.2421 132.05Z" fill="#DC8080"/>
<path d="M69.1222 124.493C68.0197 124.493 66.9836 124.905 66.2796 125.618L66.7047 126.458C67.2759 125.856 68.126 125.475 69.0292 125.475C70.3309 125.475 71.0083 126.252 71.0083 127.677V128.184H68.7901C66.7844 128.184 66.0937 129.261 66.0937 130.545C66.0937 131.986 67.0633 132.968 68.644 132.968C69.7996 132.968 70.6231 132.446 71.0482 131.59V132.889H71.9514V127.725C71.9514 125.571 70.9286 124.493 69.1222 124.493ZM68.7901 132.081C67.6743 132.081 67.0235 131.479 67.0235 130.513C67.0235 129.658 67.4618 129.024 68.8167 129.024H71.0083V130.386C70.6364 131.479 69.8527 132.081 68.7901 132.081Z" fill="#DC8080"/>
<path d="M75.0597 124.557L74.9402 127.535C74.8472 129.737 74.7409 131.97 73.5853 131.97C73.4923 131.97 73.3728 131.939 73.2532 131.907L73.1868 132.873C73.4392 132.952 73.6517 133 73.8643 133C75.3652 133 75.6707 130.529 75.7903 127.614L75.8832 125.555H79.2305V132.889H80.1736V124.557H75.0597Z" fill="#DC8080"/>
<path d="M88.9779 128.723C88.9779 126.22 87.5567 124.493 85.5908 124.493C83.625 124.493 82.1771 126.252 82.1771 128.723C82.1771 131.194 83.6648 132.968 85.8432 132.968C86.9457 132.968 87.9153 132.493 88.5396 131.606L88.0083 130.877C87.477 131.606 86.7199 131.97 85.8698 131.97C84.3422 131.97 83.2265 130.814 83.1202 129.071H88.9647C88.9647 128.945 88.9779 128.818 88.9779 128.723ZM85.5908 125.46C86.959 125.46 87.9552 126.6 88.0747 128.232H83.1202C83.2398 126.6 84.236 125.46 85.5908 125.46Z" fill="#DC8080"/>
<path d="M95.6689 124.557H89.4392V125.555H92.0825V132.889H93.0256V125.555H95.6689V124.557Z" fill="#DC8080"/>
<path d="M99.4366 124.493C98.3342 124.493 97.2981 124.905 96.5941 125.618L97.0191 126.458C97.5903 125.856 98.4404 125.475 99.3436 125.475C100.645 125.475 101.323 126.252 101.323 127.677V128.184H99.1046C97.0988 128.184 96.4081 129.261 96.4081 130.545C96.4081 131.986 97.3778 132.968 98.9584 132.968C100.114 132.968 100.938 132.446 101.363 131.59V132.889H102.266V127.725C102.266 125.571 101.243 124.493 99.4366 124.493ZM99.1046 132.081C97.9888 132.081 97.3379 131.479 97.3379 130.513C97.3379 129.658 97.7763 129.024 99.1311 129.024H101.323V130.386C100.951 131.479 100.167 132.081 99.1046 132.081Z" fill="#DC8080"/>
<defs>
<clipPath id="clip0">
<rect width="110.69" height="97.5158" fill="white"/>
</clipPath>
</defs>
</svg>
