<svg width="0" height="0" class="hidden">
  <symbol viewBox="0 0 9 15" fill="none" xmlns="http://www.w3.org/2000/svg" id="smartphone">
    <path d="M7.844 0H1.156C.6 0 .143.456.143 1.013v12.973C.143 14.544.6 15 1.156 15h6.688c.557 0 1.013-.455 1.013-1.013V1.013C8.857.456 8.4 0 7.844 0zM3.43.73h2.14a.123.123 0 0 1 0 .246H3.43a.123.123 0 1 1 0-.246zM4.5 14.493a.507.507 0 1 1 0-1.013.507.507 0 0 1 0 1.013zm3.652-1.368H.848V1.607h7.304v11.518z"
      fill="#3C3735"></path>
  </symbol>
  <symbol viewBox="0 0 15 12" fill="none" xmlns="http://www.w3.org/2000/svg" id="email">
    <path d="M13.5 0h-12C.675 0 .007.675.007 1.5L0 10.5c0 .825.675 1.5 1.5 1.5h12c.825 0 1.5-.675 1.5-1.5v-9c0-.825-.675-1.5-1.5-1.5zm0 10.5h-12V3l6 3.75 6-3.75v7.5zm-6-5.25l-6-3.75h12l-6 3.75z" fill="#3C3735"></path>
  </symbol>
</svg>