<svg width="9" height="15" viewBox="0 0 9 15" fill="none" xmlns="http://www.w3.org/2000/svg">
<path d="M7.8437 0H1.15627C0.599127 0 0.143127 0.455571 0.143127 1.01314V13.9864C0.143127 14.544 0.599127 15 1.15627 15H7.8437C8.40084 15 8.85684 14.5449 8.85684 13.9869V1.01314C8.85684 0.455571 8.40084 0 7.8437 0ZM3.43027 0.730286H5.5697C5.63741 0.730286 5.69227 0.785143 5.69227 0.853286C5.69227 0.921 5.63741 0.975857 5.5697 0.975857H3.43027C3.36256 0.975857 3.3077 0.921 3.3077 0.853286C3.3077 0.785143 3.36256 0.730286 3.43027 0.730286ZM4.49998 14.4934C4.22013 14.4934 3.99341 14.2667 3.99341 13.9864C3.99341 13.7061 4.22013 13.4799 4.49998 13.4799C4.77984 13.4799 5.00656 13.7061 5.00656 13.9864C5.00656 14.2667 4.77984 14.4934 4.49998 14.4934ZM8.15184 13.125H0.848127V1.60671H8.15184V13.125Z" fill="#3C3735"/>
</svg>
